<?xml version="1.0" encoding="UTF-8" standalone="no"?>
<!-- Created with Inkscape (http://www.inkscape.org/) -->

<svg
   xmlns:dc="http://purl.org/dc/elements/1.1/"
   xmlns:cc="http://creativecommons.org/ns#"
   xmlns:rdf="http://www.w3.org/1999/02/22-rdf-syntax-ns#"
   xmlns:svg="http://www.w3.org/2000/svg"
   xmlns="http://www.w3.org/2000/svg"
   xmlns:sodipodi="http://sodipodi.sourceforge.net/DTD/sodipodi-0.dtd"
   xmlns:inkscape="http://www.inkscape.org/namespaces/inkscape"
   version="1.1"
   id="svg2"
   xml:space="preserve"
   width="2279.4492"
   height="2278.165"
   viewBox="0 0 2279.4492 2278.165"
   sodipodi:docname="logo-wroclaw.svg"
   inkscape:version="0.92.5 (2060ec1f9f, 2020-04-08)"><metadata
     id="metadata8"><rdf:RDF><cc:Work
         rdf:about=""><dc:format>image/svg+xml</dc:format><dc:type
           rdf:resource="http://purl.org/dc/dcmitype/StillImage" /><dc:title></dc:title></cc:Work></rdf:RDF></metadata><defs
     id="defs6" /><sodipodi:namedview
     pagecolor="#ffffff"
     bordercolor="#666666"
     borderopacity="1"
     objecttolerance="10"
     gridtolerance="10"
     guidetolerance="10"
     inkscape:pageopacity="0"
     inkscape:pageshadow="2"
     inkscape:window-width="1920"
     inkscape:window-height="1136"
     id="namedview4"
     showgrid="false"
     inkscape:zoom="0.10359214"
     inkscape:cx="1139.7246"
     inkscape:cy="1139.0825"
     inkscape:window-x="0"
     inkscape:window-y="27"
     inkscape:window-maximized="1"
     inkscape:current-layer="g10" /><g
     id="g10"
     inkscape:groupmode="layer"
     inkscape:label="wroclaw-logo"
     transform="matrix(1.3333333,0,0,1.3333333,0,1.8287459e-5)"><g
       id="g12"><path
         d="m 1062.176,768.215 c -0.039,17.375 131.679,-52.985 110.152,-191.035 -75.746,1.519 -48.695,-48.52 -5.547,-22.965 -6.914,-23.133 -8.394,-58.695 13.492,-48.035 10.11,14.523 12.102,30.836 2.231,49.777 21.66,-11.344 36.457,-13.426 41.098,-9.164 4.843,14.871 0.152,23.93 -37.618,30.379 13.434,111.562 -20.808,203.008 -124.043,239.894 l -0.379,133.129 c 42.653,81.067 125.016,173.875 198.079,50.153 -47.082,11.781 -80.446,-2.828 -89.446,-40.321 l -8.375,-47.058 24.719,32.652 c 48.199,18.336 82.984,24.543 123.723,-35.523 l -29.785,-2.45 -20.352,-7.336 c -28.742,-15.582 -43.887,-42.14 -45.367,-79.656 23.082,22.43 94.82,53.84 122.887,-12.742 -35.165,0.133 -51.809,-14.105 -61.692,-55.039 l -0.195,-53.219 c 16.418,6.09 30.058,3.989 40.961,-6.293 -53.703,-25.144 -53.657,-63.304 -61.895,-112.351 -9.086,-127.7 -161.636,-140.86 -155.355,-19.864 l 16.031,22.434 c -5.816,44.25 2.453,81.875 -52.945,82.078 z m 249.554,48.59 -19.476,-3.465 c -46.621,-32.422 -31.215,-90.375 -49.93,-102.352 -15.941,-2.293 -22.402,4.797 -19.394,21.285 l 1.875,26.516 14.289,37.082 c 35.222,48.52 72.14,23.18 72.636,20.934 z m -52.683,104.519 c -34.844,-18.394 -46.797,-24.074 -56.906,-68.734 -2.657,-47.156 -40.844,-61.371 -42.457,0.156 21.261,68.051 46.007,86.692 118.836,75.582 0,-0.019 -15.981,-5.168 -19.473,-7.004 z m -45.66,97.399 c -1.77,2.093 -55.516,-8.512 -58.559,-38.684 -3.805,-38.074 5.242,-71.379 -32.219,-100.66 -68.39,10.371 -15.027,86.484 3.95,107.836 37.238,36.937 30.816,36.683 83.304,38.59 0.012,0.01 5.293,-9.153 3.524,-7.082 z M 655.738,766.184 c 0,17.371 -131.144,-46.129 -110.14,-184.266 75.765,1.234 48.527,-48.703 5.457,-22.984 6.847,-23.164 8.199,-58.727 -13.649,-47.989 -10.058,14.563 -11.984,30.887 -2.043,49.778 -21.691,-11.254 -36.508,-13.278 -41.129,-9.008 -4.785,14.89 -0.058,23.937 37.735,30.23 -13.008,111.614 19.394,199.5 122.777,236.008 l 3.043,136.559 c -42.351,81.222 -124.351,174.336 -197.902,50.875 47.129,11.605 80.437,-3.114 89.308,-40.66 l 8.192,-47.079 -24.582,32.75 c -48.141,18.52 -82.887,24.852 -123.86,-35.066 l 29.785,-2.57 20.321,-7.391 c 28.687,-15.691 43.715,-42.312 45.066,-79.844 -23.004,22.52 -94.625,54.192 -122.922,-12.273 35.145,0 51.731,-14.309 61.457,-55.274 v -53.214 c -16.382,6.144 -30.039,4.093 -40.972,-6.141 53.609,-25.348 53.402,-63.52 61.457,-112.582 8.617,-127.731 161.113,-141.457 155.289,-20.438 l -15.953,22.489 c 6.05,44.582 -1.821,80.301 53.277,81.875 v 96.215 z m -248.629,55.871 19.465,-3.532 c 46.504,-32.593 30.852,-90.48 49.551,-102.543 15.922,-2.363 22.418,4.708 19.461,21.215 l -1.77,26.528 -14.152,37.129 c -35.047,48.656 -72.051,23.453 -72.555,21.203 z m 53.082,104.316 c 34.766,-18.519 46.692,-24.238 56.633,-68.945 2.488,-47.168 40.621,-61.516 42.477,0 -21.02,68.129 -45.699,86.863 -118.567,76.008 -0.007,0.011 15.973,-5.204 19.457,-7.063 z m 46.02,97.254 c 1.777,2.074 55.492,-8.734 58.391,-38.91 3.668,-38.09 -5.497,-71.36 31.859,-100.766 68.422,10.11 15.348,86.41 -3.543,107.86 -37.098,37.05 -30.68,36.796 -83.168,38.89 0,0 -5.32,-9.164 -3.539,-7.074 z M 674.348,593.258 c -27.239,-5.942 -46.946,-23.207 -47.219,-50.93 -0.039,-5.652 -1.254,-6.023 4.476,-4.836 16.684,3.465 32.196,8.434 48.606,3.414 1.062,-0.328 1.715,-17.117 -0.895,-20.98 -5.941,-8.805 -15.679,-21.535 -11.945,-24.824 1.219,-1.071 8.367,0.914 17.629,0.808 2.078,-0.019 0.805,-29.648 1.223,-27.879 0.351,1.457 -9.621,-7.781 -9.317,-13.601 0.164,-3.188 23.024,-6.36 28.899,-0.145 3.074,3.258 -7.793,12.473 -8.258,15.039 -1.82,10.047 1.566,25.844 3.414,25.805 4.785,-0.094 10.406,-1.215 13.687,0.652 4.375,2.512 -2.093,15.176 -9.777,22.52 -8.976,8.578 -6.422,22.004 -4.152,22.722 14.433,4.563 31.535,0.313 45.922,-3.382 2.996,-0.77 7.031,0.504 6.437,4.425 -3.422,22.293 -20.016,41.582 -52.469,51.176 v 652.985 l 8.153,5.378 c 27.625,15.254 26.703,35.856 -5.078,46.641 l -10.157,5.109 c 17.035,41.961 -33.82,45.086 -18.265,0.739 l -10.719,-5.485 c -29.398,-18.394 -30.621,-34.027 -3.707,-46.906 l 14.035,-4.426 z m -26.11,-41.465 c 26.703,8.695 55,6.34 76.516,1.816 6.808,-1.429 9.25,-5.203 7.199,3.465 -7.015,29.735 -75.039,42.985 -87.246,-2.441 -1.625,-6.004 -0.398,-4.113 3.531,-2.84 z m 366.992,44.461 c -27.246,-5.953 -46.945,-23.207 -47.214,-50.93 -0.059,-5.652 -1.254,-6.023 4.464,-4.836 16.68,3.465 32.208,8.434 48.598,3.414 1.059,-0.328 1.711,-17.109 -0.894,-20.972 -5.926,-8.801 -15.672,-21.535 -11.938,-24.825 1.195,-1.07 8.356,0.915 17.617,0.809 2.09,-0.019 0.817,-29.66 1.235,-27.879 0.34,1.449 -9.61,-7.781 -9.328,-13.597 0.175,-3.192 23.023,-6.364 28.918,-0.145 3.074,3.258 -7.809,12.469 -8.266,15.035 -1.828,10.051 1.574,25.848 3.422,25.809 4.785,-0.098 10.39,-1.215 13.679,0.66 4.368,2.5 -2.093,15.176 -9.789,22.519 -8.968,8.571 -6.398,22.004 -4.14,22.715 14.433,4.563 31.535,0.321 45.922,-3.375 2.984,-0.769 7.031,0.496 6.418,4.426 -3.403,22.293 -20.008,41.594 -52.457,51.172 v 652.976 l 8.148,5.399 c 27.629,15.234 26.695,35.836 -5.066,46.644 l -10.184,5.106 c 17.063,41.945 -33.805,45.066 -18.258,0.719 l -10.719,-5.485 c -29.386,-18.375 -30.625,-34.008 -3.707,-46.886 l 14.036,-4.446 z m -26.097,-41.477 c 26.691,8.707 54.98,6.344 76.504,1.828 6.801,-1.429 9.254,-5.21 7.199,3.454 -7.012,29.738 -75.047,42.988 -87.262,-2.442 -1.597,-6 -0.383,-4.101 3.559,-2.84 z m -348.668,622.649 c -23.317,2.633 -44.172,-8.114 -62.613,-15.196 -1.274,-0.476 -3.153,-2.031 -4.61,-1.898 -5.515,0.516 -8.25,0.176 -2.172,17.141 9.825,27.41 34.407,48.441 70.118,54.832 z m 429.676,-9.731 c 22.168,2.637 42.004,-8.109 59.543,-15.183 1.214,-0.496 3.004,-2.051 4.367,-1.914 5.242,0.535 7.847,0.175 2.07,17.136 -9.348,27.414 -32.711,48.446 -66.672,54.836 z M 656.625,1012.129 c -15.953,7.617 -33.297,25.629 -43.707,66.535 l -18.734,10.387 c 5.718,28.578 54.093,5.527 60.367,-14.551 z m 407.816,1.945 c 15.942,7.617 33.286,25.629 43.696,66.535 l 18.734,10.407 c -5.719,28.558 -54.094,5.527 -60.359,-14.571 z M 716.973,831.258 c 99.918,12.316 192.699,10.371 282.257,1.945 l -3.89,52.508 c -23.543,13.715 -12.481,35.066 0,52.508 l 3.89,106.961 c -4.542,25.273 -14.289,45.371 -29.203,60.281 -28.859,-31.594 -41.117,-56.652 -34.25,-78.41 4.746,-15.129 6.918,-32.071 -2.734,-53.84 -26.406,12.82 -32.789,62.523 -13.617,81.687 11.683,20.43 6.234,43.395 -3.891,62.215 18.942,36.442 43.637,47.879 81.75,64.203 v 64.18 l -29.183,5.836 c -29.086,-3.004 -44.309,-12.879 -62.293,-21.391 -12.024,45.047 -8.668,67.676 -42.84,99.172 -31.789,-23.328 -53.86,-53.14 -54.5,-97.234 -18.758,23.258 -59.438,27.371 -83.696,19.453 l 1.934,-66.137 c 37.277,-9.609 65.574,-27.566 70.086,-68.07 -30.398,-18.977 -21.523,-45.863 -1.945,-71.945 14.066,-46.981 12.59,-55.532 -17.52,-73.907 l -9.734,29.165 v 31.117 l 3.89,19.453 -5.847,35.019 -15.563,21.391 -25.312,-31.117 -3.891,-48.617 -1.953,-81.672 c 30.805,-30.379 17.121,-39.289 -1.938,-73.93 v -40.824 z m 46.711,385.074 c 1.574,-8.664 48.043,-25.836 56.457,-81.668 11.953,34.387 6.644,79.832 -60.348,103.07 z m 101.23,-87.504 1.957,151.688 c 49.191,-69.395 -2.113,-163.606 -1.957,-151.688 z m 118.742,60.277 c 0.457,2.258 -55.797,-18.812 -79.812,-56.386 11,62.215 24.793,58.937 77.875,79.715 z M 940.02,872.492 c -22.004,60.113 -51.586,93.09 -84.59,125.715 -44.696,-43.965 -68.625,-84.355 -80.317,-122.824 5.137,-4.406 22.059,17.019 33.657,15.426 6.535,-0.895 13.714,-17.247 21.242,-18.2 8.902,-1.117 16.828,21.664 26.343,18.813 9.825,-2.93 21.731,-16.926 29.083,-18.774 7.851,-1.937 14.554,15.008 22.304,14.969 12.969,-0.058 19.242,-14.969 32.278,-15.125 z m -127.672,213.543 c 0,0 11.683,3.891 50.632,1.938 38.926,-1.938 42.817,-5.836 42.817,-5.836 16.566,11.457 -10.328,29.48 -48.664,33.051 -44.774,-7.762 -44.785,-29.153 -44.785,-29.153 z m 6.234,-26.594 c 0,0 9.039,-1.953 39.152,-0.972 30.129,0.972 33.153,2.929 33.153,2.929 12.82,-5.761 -7.996,-14.796 -37.664,-16.605 -34.641,3.91 -34.641,14.648 -34.641,14.648 z m -14.727,-153 c -0.757,6.215 5.469,16.817 16.5,31.856 l 9.911,8.793 c 6.593,-6.235 16.507,-23.801 23.101,-41.778 l -24.199,-17.578 z m 57.45,-3.328 c -0.766,6.235 5.468,16.848 16.507,31.899 l 9.903,8.773 c 6.617,-6.219 16.508,-23.805 23.101,-41.762 l -24.199,-17.597 z m -27.508,48.375 c 0.914,11.856 17.625,26.973 22.004,30.797 6.605,-6.234 18.703,-15.027 25.32,-32.984 L 858.008,929.504 Z M 717.098,431.883 c 0.496,-15.863 17.402,-39.367 51.722,-42.246 l 15.289,0.605 19.407,2.539 19.425,1.36 c 13.825,-15.942 33.336,-26.352 49.766,-21.508 l 27.664,3.523 c 21.527,9.629 46.984,25.934 70.66,24.707 l -18.715,29.512 -15.886,36.613 -7.071,29.582 c -1.937,29.582 6.973,58.168 12.821,87.75 l 0.593,0.274 c 10.543,29.968 33.926,57.031 60.094,76.613 l -2.984,121.152 c -68.969,20.633 -139.695,-23.093 -142.731,-21.156 -37.636,23.949 -117.078,21.973 -135.277,19.902 l -2.336,-118.527 c 6.762,2.965 60.145,-46.508 81.43,-79.969 l 1.398,-0.836 c 9.465,-30.222 12.735,-61.468 7.004,-94.199 L 797.23,472.289 c -30.433,-14.727 -39.257,-27.437 -38.343,-39.531 l 38.656,8.394 c -26.02,-5.535 -41.828,-18.324 -80.445,-9.269 z m 206.785,145.578 -8.832,-43.899 0.379,-47.187 c 1.972,-26.086 13.734,-51.855 31.332,-75.336 -49.035,-20.953 -95.535,-36.383 -110.707,-5.312 l -7.102,7.257 c -23.172,-4.386 -85.183,-21.293 -95.301,10.125 25.399,-2.238 43.493,3.813 67.325,9.805 l 25.398,9.524 -13.473,7.187 -44.929,-9.793 c 5.175,28.742 29.949,2.313 56.156,46.387 l 3.297,50.183 -4.348,37.899 0.922,17.433 9.973,13.305 9.484,-15.484 c 3.93,-16.625 11.02,-17.219 16.828,-1.801 l 12.469,15.535 10.488,-15.086 c 1.875,-17.512 7.07,-15.398 14.59,-2.746 l 7.598,13.93 c 8.363,15.215 14.386,-13.11 18.453,-21.926 z m -74.891,-163.805 8.774,-6.82 9.757,0.973 c 0,0 4.883,2.918 10.739,4.875 5.836,1.953 11.679,0.972 11.679,0.972 l -5.855,7.789 -12.672,2.93 -11.715,-0.984 c 0,0.011 -11.691,-10.707 -10.707,-9.735 z m -46.574,200.879 c 8.305,-13.707 6.777,-14.828 18.664,-3.746 l 13.66,13.121 10.281,-12.41 c 7.899,-21.051 12.559,-8.191 21.602,1 l 8.152,8.492 12.5,-12.324 c 2.055,-6.195 5.243,-9.883 11.266,-1.422 1.098,1.586 7.957,15.566 13.152,16.063 3.344,0.328 6.739,-11.293 9.102,-14.555 4.863,-6.692 5.926,-10.856 10.828,-6.457 8.832,7.918 6.176,15.601 16.508,25.961 13.074,13.121 34.367,39.125 47.84,54.336 l 0.875,13.687 c -7.239,20 -15.731,42.887 -28.59,56.352 -5.981,-7.453 -9.707,-13.434 -13.356,-23.231 -7.05,10.739 -11.554,19.895 -19.757,24.758 l -17.801,-18.211 -18.18,19.641 c -12.141,-9.563 -13.18,-13.238 -20.894,-26.801 l -8.075,6.324 -14.543,20.348 -25.492,-25.231 c -4.066,11.692 -9.203,24.008 -17.18,31.235 l -17.898,-19.797 -19.434,23.766 -9.476,-10.008 -18.317,-26.598 -18.55,-42.816 24.425,-19.844 10.332,-13.688 21.02,-16.964 c 4.621,-10.954 13.492,-14.629 17.336,-20.981 z m -12.324,21.293 c 0.98,-4.156 20.133,-22.344 21.613,-20.906 7.508,7.297 17.879,17.492 21.625,21.012 -1.664,11.371 -15.332,28.968 -23.66,36.527 -7.266,-8.27 -22.344,-24.941 -19.578,-36.633 z m -27.383,30.602 c 0.98,-4.047 18.422,-20.282 19.902,-18.668 7.5,8.152 19.387,23.316 23.141,27.265 -2.113,14.125 -13.348,22.422 -22.969,30.047 -7.285,-9.086 -22.84,-27.273 -20.074,-38.644 z m -26.5,22.828 c 1.051,-4.047 18.164,-16.75 19.738,-15.145 8.074,8.141 12.656,24.328 16.703,28.278 -9.863,11.586 -10.418,12.675 -19.269,22.324 -7.844,-9.086 -20.149,-24.106 -17.172,-35.457 z m 23.648,37.558 c 1.059,-4.046 17.657,-21.285 19.243,-19.679 12.109,12.218 8.832,12.383 13.898,23.445 3.582,7.77 -9.094,15.438 -16.43,25.094 -7.84,-9.094 -19.675,-17.5 -16.711,-28.86 z m 223.321,-8.543 c 1.953,2.426 -11.723,25.868 -14.551,24.942 -3.113,-1.02 -12.82,-21.457 -11.801,-24.219 0.66,-1.781 9.59,-19.047 9.387,-18.141 -0.203,0.719 16.847,17.293 16.965,17.418 z m -1.977,-7.82 c 4.391,-4.492 12.52,-13.305 9.613,-19.348 -3.093,-6.429 -13.093,-17.789 -13.55,-16.476 -0.68,4.113 -4.688,7.031 -8.59,17.18 -0.653,1.777 -6.313,3.082 12.527,18.644 z m -29.121,8.086 c -4.766,7.539 -12.355,23.227 -15.848,25.934 -7.847,-9.086 -15.328,-15.411 -17.175,-22.598 1.058,-4.059 15.843,-29.777 17.476,-28.23 9.223,8.726 12.277,13.277 15.547,24.894 z M 791.531,710.68 c 1.051,-4.039 17.031,-18.563 18.617,-16.965 8.086,8.14 15.059,18.023 19.098,21.965 -2.277,14.132 -7.16,28.832 -17.519,36.457 -7.832,-9.078 -23.161,-30.086 -20.196,-41.457 z m 19.739,-31.723 c 0.914,-3.793 22.07,-25.387 23.453,-23.891 7.031,7.637 14.269,20.438 17.781,24.133 -1.984,13.242 -10.34,23.852 -19.348,31.012 -6.82,-8.52 -24.465,-20.602 -21.886,-31.254 z m 44.957,0.777 c 0.914,-3.781 16.207,-25.445 17.597,-23.957 7.016,7.625 13.832,20.914 17.344,24.61 -1.973,13.23 -7.051,22.051 -16.051,29.203 -6.816,-8.512 -21.457,-19.203 -18.89,-29.856 z m -22.411,44.008 c 0.914,-3.785 19.746,-29.64 21.118,-28.14 7.023,7.636 12.812,19.648 16.332,23.336 -1.973,13.226 -7.121,22.46 -16.125,29.597 -6.821,-8.508 -16.832,-15.668 -21.325,-24.793 z m 44.356,-7.148 c 0.914,-3.785 15.691,-23.746 17.082,-22.246 7.016,7.632 18.062,23.851 21.586,27.547 -1.977,13.226 -10.07,15.992 -19.074,23.14 -6.821,-8.512 -22.172,-17.801 -19.594,-28.441 z m 18.91,-36.117 c 0.914,-3.786 16.004,-27.793 17.383,-26.286 7.015,7.637 14.746,22.442 18.258,26.129 -5.059,13.207 -8.266,23.063 -17.059,30.211 -6.801,-8.5 -21.168,-19.406 -18.582,-30.054 z m 39.59,-3.34 c 0.703,-3.832 15.848,-31.457 17.285,-30.047 7.414,7.258 15.293,21.586 18.981,25.086 -4.126,9.535 -8.532,21.937 -15.868,31.762 -7.234,-8.153 -22.429,-16.051 -20.398,-26.801 z M 836.629,635.262 c 0.785,-4.035 17.246,-21.34 18.473,-19.891 6.242,7.293 14.433,15.973 17.546,19.492 -1.769,14.367 -9.484,27.219 -17.472,35.942 -6.039,-8.258 -20.852,-23.782 -18.547,-35.543 z m 75.988,-0.067 c 0.778,-4.039 15.731,-21.84 16.945,-20.398 6.235,7.293 14.727,19.199 17.84,22.711 -1.769,14.367 -7.238,23.484 -15.234,32.219 -6.02,-8.25 -21.867,-22.774 -19.551,-34.532 z m -39.074,1.321 c 0.895,-4.094 18.355,-21.332 19.699,-19.903 6.856,7.309 14.891,14.973 18.336,18.485 -1.937,14.367 -9.902,28.722 -18.699,37.468 -6.652,-8.269 -21.863,-24.328 -19.336,-36.05 z m 355.687,-550.223 38.95,20.23 37.5,21.965 36,23.617 34.504,25.204 32.945,26.703 31.371,28.148 29.785,29.496 28.16,30.797 26.528,32.012 24.851,33.152 23.16,34.219 21.43,35.223 19.699,36.148 17.918,37 16.129,37.773 14.309,38.489 12.461,39.113 10.601,39.688 8.707,40.164 6.778,40.586 4.828,40.929 2.867,41.196 0.875,41.41 -1.137,41.515 -3.211,41.586 -5.261,41.543 -7.356,41.481 -9.484,41.3 -11.621,41.079 -13.813,40.75 -15.984,40.347 -18.219,39.922 -20.215,38.906 -21.961,37.473 -23.601,35.981 -25.192,34.445 -26.691,32.906 -28.145,31.332 -29.5,29.754 -30.777,28.141 -32.012,26.468 -33.152,24.836 -34.242,23.102 -35.203,21.41 -36.157,19.648 -37.011,17.899 -37.77,16.09 -38.512,14.269 -39.132,12.422 -39.688,10.563 -40.164,8.687 -40.621,6.742 -40.942,4.786 -41.226,2.851 -41.426,0.836 -41.547,-1.18 -41.605,-3.226 -41.582,-5.305 -41.496,-7.371 -41.332,-9.504 -41.098,-11.664 -40.777,-13.813 -40.399,-16.011 -39.949,-18.219 -38.957,-20.25 -37.5,-21.965 -36,-23.617 -34.496,-25.195 -32.945,-26.711 -31.379,-28.16 -29.786,-29.485 -28.171,-30.797 -26.528,-32.011 -24.843,-33.153 -23.161,-34.218 -21.437,-35.223 L 95.492,1245.41 77.566,1208.395 61.43,1170.625 47.121,1132.152 34.66,1093.039 24.066,1053.352 15.359,1013.188 8.578,972.605 3.734,931.684 0.867,890.477 0,849.078 l 1.148,-41.527 3.2,-41.574 5.261,-41.563 7.364,-41.469 9.484,-41.3 11.637,-41.059 13.793,-40.758 15.992,-40.359 18.207,-39.903 20.223,-38.929 21.957,-37.469 23.605,-35.973 25.195,-34.453 26.692,-32.918 28.14,-31.34 29.497,-29.746 30.793,-28.121 32.015,-26.488 33.149,-24.817 34.23,-23.121 35.223,-21.398 36.148,-19.66 37.004,-17.887 37.789,-16.09 38.492,-14.269 39.133,-12.434 39.695,-10.555 40.184,-8.664 40.602,-6.742 40.941,-4.816 41.215,-2.828 41.43,-0.848 41.554,1.188 41.606,3.218 41.582,5.293 41.5,7.383 41.32,9.512 41.098,11.652 40.785,13.816 40.39,16.008 z m -22.05,45.238 -37.391,-17.058 -37.793,-14.981 -38.148,-12.918 -38.473,-10.875 -38.664,-8.871 -38.813,-6.887 -38.929,-4.914 -38.949,-2.976 -38.891,-1.059 -38.77,0.824 -38.601,2.707 -38.332,4.551 -38.028,6.371 -37.625,8.172 -37.175,9.942 -36.653,11.699 -36.05,13.433 -35.399,15.137 -34.656,16.82 -33.863,18.481 -33.004,20.105 -32.063,21.711 -31.058,23.309 -29.989,24.871 -28.851,26.402 -27.645,27.926 -26.359,29.414 -25.031,30.887 -23.598,32.332 -22.141,33.754 -20.59,35.156 -18.98,36.535 -17.082,37.449 -15.008,37.872 -12.965,38.226 -10.945,38.52 -8.91,38.726 -6.934,38.899 -4.972,38.976 -3.036,38.996 -1.109,38.93 0.77,38.82 2.644,38.649 4.477,38.375 6.312,38.051 8.102,37.675 9.875,37.196 11.625,36.683 13.363,36.059 15.059,35.418 16.742,34.687 18.394,33.871 20.035,33.004 21.637,32.071 23.227,31.058 24.785,29.981 26.332,28.843 27.84,27.645 29.347,26.351 30.797,25 32.246,23.579 33.688,22.109 35.074,20.555 36.457,18.937 37.375,17.063 37.801,14.968 38.16,12.899 38.441,10.887 38.684,8.871 38.832,6.879 38.91,4.921 38.938,2.985 38.902,1.043 38.781,-0.82 38.59,-2.711 38.332,-4.543 38.016,-6.383 37.637,-8.172 37.156,-9.93 36.652,-11.703 36.059,-13.434 35.398,-15.144 34.649,-16.82 33.871,-18.461 32.984,-20.117 32.074,-21.711 31.059,-23.297 30,-24.871 28.84,-26.411 27.644,-27.929 26.371,-29.403 25.02,-30.894 23.617,-32.336 22.129,-33.742 20.574,-35.164 18.977,-36.535 17.101,-37.454 15.032,-37.867 12.933,-38.246 10.946,-38.512 8.91,-38.734 6.933,-38.891 4.981,-38.968 3.035,-39.004 1.121,-38.949 -0.777,-38.813 -2.637,-38.637 -4.484,-38.382 -6.286,-38.055 -8.113,-37.672 -9.883,-37.199 -11.625,-36.68 -13.355,-36.082 -15.047,-35.414 -16.742,-34.668 -18.395,-33.883 -20.047,-33.012 -21.644,-32.062 -23.238,-31.059 -24.774,-29.98 -26.332,-28.844 -27.851,-27.644 -29.317,-26.34 -30.816,-25.008 -32.254,-23.59 -33.668,-22.101 -35.067,-20.555 z M 856.629,72.43 c 429.43,0 779.672,350.156 779.672,779.48 0,429.336 -350.242,779.5 -779.672,779.5 -429.426,0 -779.656,-350.164 -779.656,-779.5 0,-429.316 350.23,-779.48 779.656,-779.48 z m -2.387,23.91 c 417.625,0 758.219,339.414 758.219,755.57 0,416.164 -340.594,755.578 -758.219,755.578 -417.601,0 -758.203,-339.414 -758.203,-755.578 0,-416.156 340.602,-755.57 758.203,-755.57 z m 6.07,213.008 c 303.016,0 550.168,246.918 550.168,549.672 0,302.742 -247.152,549.671 -550.168,549.671 -303.023,0 -550.175,-246.929 -550.175,-549.671 0,-302.743 247.14,-549.672 550.175,-549.672 z m 0,18.968 c 289.965,0 526.465,238.407 526.465,530.715 0,292.313 -236.492,530.711 -526.465,530.711 -289.968,0 -526.46,-238.398 -526.46,-530.711 0,-292.308 236.492,-530.715 526.46,-530.715 z m 580.227,541.305 0.699,-10.027 c 13.539,0.953 27.094,1.605 40.66,1.957 l -0.679,9.629 c -10.281,1.41 -18.481,5.066 -24.621,11.019 -6.137,5.926 -9.532,13.453 -10.164,22.512 -0.457,6.496 0.972,11.797 4.261,15.98 3.325,4.125 7.899,6.418 13.754,6.821 7.977,0.57 16.168,-6.762 24.512,-21.926 0.242,-0.418 0.418,-0.723 0.516,-0.934 11.117,-20.175 20.535,-33.269 28.289,-39.23 7.711,-5.984 17.019,-8.61 27.828,-7.871 13.871,0.972 24.66,6.422 32.429,16.363 7.735,9.902 11.082,22.606 9.973,38.09 -0.594,8.434 -2.226,15.601 -4.844,21.527 l -1.539,19.321 -0.718,10.066 c -6.961,-0.934 -13.946,-1.629 -20.954,-2.094 -8.257,-0.617 -16.535,-0.98 -24.812,-1.078 l 0.68,-9.844 c 12.918,-1.992 22.879,-5.925 29.824,-11.82 6.972,-5.875 10.765,-13.637 11.457,-23.297 0.574,-7.976 -1.078,-14.492 -4.922,-19.453 -3.891,-4.961 -9.387,-7.676 -16.547,-8.172 -5.66,-0.398 -10.445,0.953 -14.473,4.086 -3.968,3.133 -9.347,10.945 -16.089,23.426 -8.247,15.348 -16.145,25.777 -23.723,31.328 -7.598,5.527 -16.82,7.898 -27.664,7.141 -12.238,-0.836 -21.828,-5.485 -28.766,-13.969 -6.933,-8.492 -9.929,-19.211 -9.008,-32.168 0.516,-7.449 3.872,-13.512 4.067,-19.375 z m -24.68,156.399 c 7.317,-24.02 12.754,-47.286 18.504,-71.625 l 8.336,2.23 -0.605,2.273 c -1.828,6.704 -1.039,11.965 0.554,14.875 1.579,2.911 6.239,5.36 13.852,7.391 l 82.879,22.113 c 8.285,2.227 13.969,2.391 17.043,0.575 3.055,-1.813 5.797,-6.657 8.207,-14.457 l 8.074,2.152 c -5.875,23.121 -11.281,46.523 -18.043,71.164 l -8.055,-2.152 c 1.86,-7.957 1.977,-13.508 0.243,-16.582 -1.731,-3.114 -8.094,-5.797 -16.379,-7.997 l -82.879,-22.109 c -7.488,-2.016 -12.731,-2.152 -15.629,-0.422 -2.93,1.715 -5.324,5.965 -7.16,12.735 l -0.574,2.089 z m -7.625,27.449 4.465,-9.125 c 6.383,3.074 12.676,6.023 18.832,8.832 6.196,2.812 12.356,5.527 18.461,8.152 l -4.289,8.774 c -10.144,-2.528 -19.23,-2.168 -27.226,1.121 -7.977,3.246 -14.016,9.027 -18.043,17.246 -2.891,5.922 -3.551,11.418 -2.075,16.547 1.539,5.105 4.961,8.968 10.286,11.515 7.253,3.512 17.703,-0.281 31.273,-11.379 0.379,-0.285 0.66,-0.515 0.816,-0.664 18.063,-14.726 31.836,-23.461 41.34,-26.144 9.524,-2.715 19.211,-1.715 29.028,3.031 12.617,6.063 20.668,15.187 24.16,27.375 3.472,12.16 1.773,25.289 -5.125,39.387 -3.746,7.652 -7.977,13.754 -12.696,18.316 l -8.773,17.52 -4.484,9.132 c -3.114,-1.73 -6.176,-3.406 -9.27,-5.019 -3.094,-1.613 -6.273,-3.172 -9.531,-4.746 -4.223,-2.035 -8.211,-3.91 -11.957,-5.606 -3.742,-1.691 -7.391,-3.246 -10.864,-4.668 l 4.387,-8.968 c 12.821,2.988 23.617,3.007 32.391,0.097 8.734,-2.91 15.234,-8.754 19.531,-17.519 3.57,-7.258 4.484,-13.969 2.774,-20.047 -1.75,-6.098 -5.875,-10.68 -12.364,-13.832 -5.144,-2.473 -10.164,-2.988 -15.105,-1.559 -4.922,1.442 -12.899,6.742 -23.942,15.907 -13.546,11.281 -24.91,18.101 -34.101,20.445 -9.192,2.355 -18.735,1.121 -28.59,-3.629 -11.137,-5.359 -18.336,-13.277 -21.605,-23.801 -3.266,-10.508 -2.032,-21.664 3.746,-33.441 3.328,-6.781 8.773,-11.188 11.168,-16.625 z m -66.543,128.469 c 10.883,-11.606 18.938,-29.2 27.11,-42.481 l 6.574,5.02 c -4.164,6.285 -5.68,11.605 -4.563,15.984 1.122,4.348 8.833,10.883 16.782,16.926 l 89.656,68.207 c -0.039,4.347 -3.406,5.718 -8.27,7.715 l -142.679,16.418 53.859,39.804 c 7.121,5.262 13.68,8.551 18.902,8.571 5.223,0.019 9.989,-2.629 14.29,-7.918 l 7.011,5.32 c -10.261,14.531 -22.879,25.476 -32.39,39.066 l -7.09,-5.398 c 3.84,-6.363 6.613,-10.371 5.504,-14.711 -1.098,-4.348 -5.887,-9.844 -13.473,-15.602 l -71.875,-54.656 -15.809,-14.398 c -1.418,-1.313 -0.418,-6.836 5.887,-8.754 l 138.352,-16.887 -49.774,-38.434 c -7.297,-5.66 -13.414,-8.316 -18.179,-8.246 -4.809,0.078 -8.59,3.852 -13.184,9.551 z m -168.578,166.64 c 0.461,-0.344 1.121,-0.914 2.094,-1.637 30.535,-22.82 59.656,-45.863 89.18,-69.859 l 24.113,26.332 -7.012,5.484 c -8.133,-6.078 -15.691,-8.707 -22.703,-7.828 -6.996,0.875 -12.898,6.758 -25.156,16.36 -4.445,3.492 -6.918,5.945 -7.336,7.375 -0.457,1.418 0.156,3.109 1.879,5.086 l 29.883,34.269 2.925,-2.297 c 6.618,-5.183 10.372,-10.242 11.208,-15.105 0.914,-4.844 -0.954,-11.098 -5.458,-18.774 l 7.356,-5.757 c 2.07,2.925 4.445,6.039 7.141,9.406 2.671,3.363 5.941,7.215 9.804,11.64 6.301,7.278 12.887,14.297 19.746,21.051 l -6.918,5.418 c -6.933,-5.582 -13.132,-8.375 -18.558,-8.453 -5.43,-0.078 -11.723,2.734 -18.863,8.316 l -2.168,1.696 24.359,27.926 c 4.726,5.437 9.648,8.171 14.707,8.211 5.105,0 11.144,-2.715 18.102,-8.153 10.39,-8.172 13.988,-14.57 15.71,-21.75 1.731,-7.16 -0.324,-15.789 -6.16,-25.914 l 6.344,-4.961 20.711,34.766 c -29.641,28.304 -61.731,55.191 -91.731,75.144 l -5.718,-6.558 c 6.418,-5.039 9.648,-9.571 9.687,-13.657 0.039,-4.085 -3.765,-10.543 -11.398,-19.316 l -50.293,-57.684 c -4.961,-5.699 -10.738,-11.226 -14.832,-11.703 -4.086,-0.457 -8.91,1.461 -14.438,5.797 l -1.156,0.934 z m -76.57,40.942 c 6.555,-3.211 12.613,-6.254 18.199,-9.067 5.582,-2.832 10.738,-5.465 15.387,-7.918 5.418,-2.851 10.887,-5.816 16.383,-8.832 5.523,-3.027 11.039,-6.078 16.547,-9.23 l 4.101,7.672 -2.109,1.121 c -6.274,3.304 -9.949,6.535 -11.02,9.726 -1.043,3.172 0.321,8.289 4.086,15.274 l 40.184,74.832 c 4.082,7.597 8.511,13.148 11.984,14.152 3.473,0.973 8.965,-0.379 16.465,-4.008 l 3.969,7.41 c -23.5,13.184 -44.324,23.727 -67.117,35.039 l -3.969,-7.39 c 7.238,-4.145 11.441,-7.899 12.558,-11.305 1.118,-3.426 -0.339,-10.184 -4.425,-17.801 l -40.825,-76.086 c -3.687,-6.859 -6.578,-9.554 -9.882,-10.507 -3.289,-0.954 -8.114,0.226 -14.438,3.57 l -1.953,1.023 z m -85.777,28.675 2.589,9.688 -1.414,0.418 c -5.882,1.789 -9.824,3.765 -11.875,5.926 -2.035,2.148 -2.546,4.882 -1.5,8.23 0.246,0.875 1.012,2.188 2.172,4.004 1.196,1.812 2.657,3.875 4.387,6.199 l 49.152,63.285 5.282,-63.605 c 0.379,-5.664 0.457,-10.906 0.242,-15.672 -0.176,-4.766 -0.66,-8.336 -1.41,-10.738 -1.196,-3.91 -3.27,-6.258 -6.254,-7.035 -2.949,-0.797 -7.918,-0.223 -14.875,1.656 l -2.567,-8.34 c 21.071,-4.883 35.543,-11.777 52.285,-18.481 l 2.547,8.336 c -5.882,2.227 -10.105,5.11 -12.597,8.688 -2.528,3.609 -3.684,13.133 -4.657,23.578 l -11.566,124.48 c -1.73,5.184 -5.09,6.215 -10.145,3.075 l -83.578,-103.653 c -4.203,-5.207 -9.882,-12.695 -13.277,-13.699 -3.426,-0.992 -8.035,-0.68 -13.91,0.879 l -2.649,-11.168 c 26.372,-3.531 47.969,-6.703 73.618,-16.051 z m -285.758,3.93 c 25.406,4.543 49.082,9.969 74.918,12.957 l -1.469,8.609 -1.254,-0.195 c -7.683,-1.098 -13.043,-0.641 -16.098,1.457 -3.046,2.055 -5.226,6.742 -6.468,14.02 l -13.492,78.73 c -1.926,11.227 -1.305,19.039 1.816,23.465 3.152,4.465 9.953,7.695 20.555,8.988 20.144,2.41 29.922,-10.242 36.703,-27.793 l 8.871,1.278 -8.16,41.562 c -43.047,-0.894 -84.133,-8.191 -120.875,-15.75 l 1.558,-9.043 2.305,0.34 c 6.711,0.973 11.574,0.156 14.582,-2.453 2.996,-2.625 5.223,-8.152 6.672,-16.547 l 15.242,-89.004 c 1.121,-6.535 0.586,-13.297 -1.711,-16.09 -2.285,-2.808 -6.984,-4.726 -14.125,-5.758 l -1.039,-0.175 z m -20.633,-5.098 9.824,3.348 c -4.531,13.02 -8.777,26.137 -12.734,39.348 l -9.434,-3.231 c 1.313,-10.449 -0.164,-19.476 -4.476,-27.07 -4.297,-7.578 -10.883,-12.899 -19.774,-15.945 -6.363,-2.168 -12.031,-2.168 -17.07,-0.039 -5.02,2.171 -8.512,6.042 -10.469,11.664 -2.664,7.695 2.461,17.664 15.399,29.863 0.351,0.34 0.605,0.594 0.797,0.738 17.199,16.246 27.761,28.977 31.652,38.113 3.93,9.192 4.078,18.996 0.469,29.387 -4.641,13.356 -12.938,22.488 -24.922,27.469 -11.934,4.961 -25.504,4.863 -40.68,-0.301 -8.258,-2.832 -15.184,-6.082 -20.184,-10.469 l -18.89,-6.632 -9.856,-3.368 c 1.391,-3.324 2.715,-6.593 3.981,-9.902 2.82,-7.508 5.453,-15.082 7.898,-22.723 1.254,-3.949 2.391,-7.789 3.422,-11.437 l 9.652,3.305 c -1.449,13.183 -0.156,23.98 3.891,32.375 4.016,8.375 10.758,14.171 20.191,17.402 7.833,2.656 14.758,2.769 20.731,0.32 5.992,-2.512 10.156,-7.16 12.559,-14.054 1.886,-5.438 1.808,-10.508 -0.243,-15.274 -2.062,-4.726 -8.445,-12.062 -19.117,-21.984 -13.14,-12.16 -21.457,-22.684 -24.957,-31.594 -3.512,-8.91 -3.445,-18.578 0.184,-29.008 4.093,-11.777 11.265,-19.949 21.574,-24.492 10.301,-4.563 21.801,-4.668 34.492,-0.32 7.309,2.488 12.473,7.41 18.258,9.132 z m -155.121,-70.609 c 23.305,13.18 45.269,25.25 69.48,36.992 l -4.336,9.485 -2.23,-1.176 c -6.602,-3.473 -11.652,-4.77 -15.074,-3.805 -3.434,0.953 -7.121,5.164 -11.082,12.539 l -43.071,80.289 c -4.308,8.035 -7.949,14.551 -6.75,18.16 1.164,3.59 5.61,7.559 13.247,11.938 l -4.184,7.789 c -23.664,-10.383 -46.641,-22.27 -68.789,-35.582 l 4.183,-7.813 c 7.918,3.844 13.735,5.266 17.391,4.223 3.676,-1.039 8.375,-7.676 12.684,-15.687 l 43.074,-80.293 c 3.879,-7.235 5.98,-14.016 4.863,-17.438 -1.121,-3.426 -4.992,-6.898 -11.672,-10.41 l -2.054,-1.078 z M 436.34,1255.504 c 34.48,31.273 64.207,58.609 100.676,83.238 l -25.106,35.817 -7.129,-5.469 c 5.524,-10.203 7.442,-18.918 5.817,-26.235 -1.625,-7.293 -0.02,-7.957 -9.582,-15.328 -1.082,-0.82 -2.184,-1.617 -3.297,-2.394 -1.293,-0.895 -3.278,-2.235 -5.985,-4.028 l -68.898,88.684 c -4.375,5.645 -7.43,11.168 -6.41,15.149 1.012,3.929 5.168,8.89 12.422,14.851 l -5.641,7.238 c -20.543,-14.687 -40.73,-32.089 -65.094,-52.023 l 5.699,-7.352 c 7.586,5.282 13.266,7.868 17.024,7.731 3.754,-0.133 8.512,-2.371 12.887,-8.012 l 68.898,-88.668 c -0.844,-0.855 -1.965,-1.515 -2.82,-2.508 -4.719,-5.437 -9.903,-14.191 -20.446,-13.988 -7.402,0.137 -15.429,4.242 -24.058,12.277 l -7.313,-5.625 z M 251.645,849.148 c 5.359,-3.015 11.003,-7.656 13.355,-10.613 2.336,-2.93 2.695,-7.062 3.203,-13.008 l 11.68,-0.457 c -1.012,27.852 0.226,49.035 4.98,76.321 l -9.523,1.617 c -1.543,-6.598 -3.899,-10.906 -6.332,-12.996 -6.606,-5.641 -15.028,-0.457 -20.746,2.41 l -66.739,33.387 104.082,13.656 c 4.368,0.496 5.817,3.211 4.348,8.133 l -89.832,51.222 57.137,6.157 c 6.867,0.742 16.996,1.101 23.793,-0.36 4.613,-0.972 6.48,-2.926 8.015,-5.961 1.567,-3.054 1.672,-7.218 0.391,-12.5 l 9.445,-2.015 c 2.84,14.398 8.813,30.039 13.676,44.23 l -9.687,2.074 c -2.52,-7.675 -11.926,-10.468 -25.829,-12.199 l -1.332,-0.156 -137.496,-13.016 -2.004,-6.195 98.11,-55.57 -111.25,-14.536 -1.52,-6.625 z m 1301.253,-237.98 3.891,9.699 c -6.699,2.711 -13.277,5.426 -19.648,8.149 -6.383,2.746 -12.676,5.515 -18.879,8.339 l -3.746,-9.32 c 8.851,-5.933 14.812,-13.062 17.781,-21.398 2.984,-8.301 2.715,-16.84 -0.817,-25.606 -2.531,-6.281 -6.273,-10.582 -11.207,-13.004 -4.961,-2.375 -10.242,-2.441 -15.824,-0.195 -7.656,3.086 -11.918,13.617 -12.754,31.555 -0.039,0.496 -0.058,0.867 -0.039,1.101 -1.117,23.86 -3.91,40.34 -8.355,49.395 -4.446,9.086 -11.879,15.719 -22.227,19.89 -13.258,5.352 -25.738,5.129 -37.469,-0.66 -11.664,-5.769 -20.515,-16.136 -26.558,-31.109 -3.285,-8.141 -5.039,-15.57 -5.281,-22.285 l -7.371,-18.762 -3.915,-9.727 c 3.454,-1.16 6.84,-2.328 10.208,-3.55 7.613,-2.86 15.156,-5.903 22.624,-9.125 3.844,-1.672 7.54,-3.356 11.02,-5 l 3.824,9.511 c -11.058,7.676 -18.48,15.829 -22.246,24.485 -3.785,8.629 -3.765,17.605 -0.019,26.914 3.113,7.726 7.578,13.066 13.414,15.965 5.855,2.898 12.179,2.957 19.035,0.195 5.418,-2.191 9.25,-5.613 11.558,-10.34 2.254,-4.719 3.684,-14.437 4.258,-29.144 0.645,-18.063 3.231,-31.371 7.735,-39.961 4.523,-8.598 11.984,-14.969 22.363,-19.153 11.742,-4.718 22.723,-4.699 33.004,0.106 10.281,4.797 17.918,13.453 22.965,25.972 2.91,7.211 2.55,14.387 5.039,19.954 z m -270.05,-355.156 c 38.57,29.652 69.211,57.011 101.078,90.437 l -30.223,31.293 -6.019,-6.41 c 7.031,-9.137 10.32,-17.383 9.929,-24.746 -0.379,-7.363 -4.621,-15.398 -12.695,-23.988 -0.738,-0.789 -3.473,-1.11 -4.582,-2.18 -1.106,-1.07 4.406,0.125 -0.32,0.34 l -72.954,84.539 c -4.64,5.371 -6.597,10.051 -5.835,14.008 0.757,3.941 4.523,9.007 11.261,15.222 l -5.961,6.911 c -19.496,-18.708 -39.707,-35.973 -61.808,-51.489 l 5.621,-7.336 c 7.433,5.129 12.996,7.629 16.683,7.453 3.668,-0.187 8.356,-2.976 12.879,-8.211 l 72.957,-84.539 c -0.199,-0.218 -0.402,-0.437 -0.605,-0.652 l -0.32,-0.332 -0.321,-0.32 c -0.203,-0.215 -0.437,-0.582 -0.679,-0.953 -0.192,-0.344 -0.426,-0.664 -0.704,-0.942 -0.933,-0.859 -2.468,-1.363 -4.125,-3.086 -8.968,-9.336 -12.421,-9.133 -19.648,-8.715 -7.234,0.426 -15.008,4.817 -23.277,13.114 l -7.313,-5.274 z m -97.961,-57.555 c 24.355,13.348 48.238,27.898 70.617,40.648 l -4.617,8.231 -2.231,-1.254 c -6.672,-3.734 -11.777,-5.164 -15.289,-4.262 -3.512,0.907 -7.035,3.426 -11.226,10.914 l -45.727,81.516 c -4.582,8.152 -6.996,14.797 -5.875,18.531 1.117,3.707 5.543,7.899 13.219,12.559 l -4.446,7.918 c -23.636,-14.153 -46.488,-27.278 -70.96,-39.961 l 4.445,-7.926 c 7.976,4.121 13.871,5.719 17.617,4.734 3.781,-0.992 8.984,-5.902 13.566,-14.066 l 45.731,-81.512 c 4.125,-7.355 5.34,-12.172 4.269,-15.711 -1.039,-3.531 -4.921,-7.199 -11.625,-10.972 l -2.089,-1.156 z m -59.59,-32.012 10.301,3.207 c -4.289,13.797 -8.278,27.684 -11.965,41.657 l -9.903,-3.086 c 1.04,-10.993 -0.757,-20.418 -5.468,-28.258 -4.668,-7.82 -11.68,-13.192 -20.969,-16.098 -6.676,-2.074 -12.539,-1.898 -17.707,0.477 -5.125,2.429 -8.625,6.605 -10.465,12.547 -2.551,8.152 3.094,18.453 16.867,30.855 0.266,0.27 0.555,0.52 0.856,0.75 18.316,16.516 29.679,29.524 33.988,39.008 4.348,9.492 4.824,19.793 1.41,30.805 -4.387,14.132 -12.715,23.976 -24.961,29.582 -12.219,5.562 -26.293,5.882 -42.176,0.921 -8.648,-2.703 -15.71,-6.156 -21.246,-10.339 l -19.777,-6.371 -10.328,-3.231 c 2.691,-6.976 5.129,-14.051 7.312,-21.203 2.672,-8.41 5.067,-16.902 7.18,-25.469 l 10.09,3.153 c -1.082,13.882 0.59,25.156 5.055,33.843 4.406,8.676 11.586,14.532 21.468,17.625 8.211,2.567 15.371,2.469 21.508,-0.293 6.117,-2.8 10.281,-7.82 12.559,-15.125 1.789,-5.757 1.535,-11.078 -0.738,-16.011 -2.278,-4.903 -9.126,-12.395 -20.477,-22.469 -14,-12.344 -22.949,-23.113 -26.867,-32.356 -3.91,-9.238 -4.145,-19.386 -0.719,-30.437 3.891,-12.477 11.078,-21.281 21.602,-26.359 10.527,-5.086 22.461,-5.555 35.738,-1.411 7.656,2.383 13.152,7.371 19.211,9.016 z M 648.598,147.602 c 0.593,-0.118 1.488,-0.243 2.703,-0.524 39.476,-9.359 79.59,-16.633 120.152,-23.492 l 7.289,39.793 -9.125,1.781 c -4.183,-10.504 -9.64,-17.199 -16.39,-20.086 -6.75,-2.851 -18.114,-2.742 -34.055,0.379 -5.789,1.137 -9.274,2.285 -10.399,3.5 -1.128,1.18 -1.441,3.223 -0.918,6.141 l 9.254,50.609 3.821,-0.75 c 8.609,-1.68 14.593,-4.754 17.84,-9.211 3.296,-4.426 4.855,-11.719 4.73,-21.875 L 753.078,172 c 0.363,4.066 0.895,8.492 1.598,13.324 0.679,4.836 1.633,10.488 2.84,17.016 1.933,10.687 4.246,21.308 6.925,31.836 l -9.015,1.769 c -3.367,-9.367 -7.492,-15.515 -12.336,-18.492 -4.856,-2.996 -11.945,-3.551 -21.227,-1.738 l -2.82,0.555 7.539,41.25 c 1.469,8.015 4.496,13.433 9.027,16.16 4.59,2.761 11.403,3.258 20.457,1.488 13.551,-2.648 19.719,-6.031 24.942,-12.356 5.222,-6.304 11.051,-17.187 11.031,-30.535 l 8.227,-1.613 -1.645,25.254 -1.652,25.262 c -39.367,6.66 -76.699,13.8 -115.219,26.019 l -4.426,-10.64 c 8.246,-2.063 13.336,-5.196 15.242,-9.407 1.914,-4.214 0.465,-14.922 -1.859,-27.629 l -15.574,-85.191 c -1.535,-8.402 -4.043,-13.918 -7.488,-16.586 -3.446,-2.664 -8.754,-3.285 -15.954,-1.887 l -1.535,0.313 z m -95.219,34.941 3.957,8.551 -1.418,0.66 c -5.914,2.734 -9.758,5.398 -11.606,7.996 -1.82,2.57 -0.867,8.785 0.719,12.188 0.399,0.867 1.371,2.152 2.86,3.91 1.519,1.742 3.367,3.718 5.535,5.933 l 60.894,59.903 -3.804,-68.168 c -0.364,-5.578 -1.043,-11.133 -2.032,-16.633 -0.894,-5.031 -1.937,-8.738 -3.066,-11.168 -1.828,-3.969 -5.445,-8.297 -8.668,-8.695 -3.219,-0.403 -8.363,0.914 -15.387,3.91 l -3.91,-8.453 c 18.102,-7.383 36.836,-14.02 55.192,-20.875 l 2.765,8.898 c -6.238,2.414 -10.07,4.613 -11.722,8.988 -1.657,4.387 -2.95,11.887 -2.442,23.102 l 6.149,133.566 -1.852,4.739 -5.105,2.675 -106.243,-100.347 c -5.195,-4.903 -9.629,-7.664 -13.363,-8.219 -3.719,-0.566 -8.531,0.437 -14.477,2.945 l -4.066,-8.761 c 24.496,-13.786 45.488,-25.973 71.09,-36.645 z m -156.203,94.84 c 23.812,-17.129 43.054,-30.453 67.371,-47.789 l 5.508,7.664 -2.094,1.488 c -6.195,4.457 -9.649,8.473 -10.328,12.055 -0.664,3.57 2.461,12.75 7.644,19.597 l 59.942,79.133 c 5.648,7.453 10.125,11.664 13.984,12.239 3.836,0.554 9.504,-1.692 16.965,-6.684 l 5.848,7.91 c -23.129,14.25 -45.278,30.039 -66.293,47.254 l -5.301,-7.383 c 7.101,-5.476 11.043,-10.137 11.73,-13.949 0.703,-3.844 -1.515,-9.688 -7.136,-17.16 l -59.942,-79.676 c -5.066,-6.73 -11.957,-13.812 -15.594,-14.355 -3.648,-0.547 -8.617,1.418 -14.871,5.914 l -1.925,1.39 z m -74.285,68.558 c 12.972,-15.629 23.382,-22.839 38.246,-39.687 l 6.75,5.73 c -4.766,6.567 -6.672,12.219 -5.699,16.985 0.972,4.738 6.378,12.219 14.531,19.144 l 96.195,81.746 -9.223,9 -153.281,8.141 51.465,43.004 c 7.297,6.09 17.395,11.859 22.969,12.16 5.57,0.301 10.797,-2.297 15.648,-7.781 l 7.61,5.269 c -11.09,12.25 -23.696,32.207 -33.571,46.801 l -7.285,-6.168 c 4.434,-6.652 6.207,-12.355 5.274,-17.051 -0.946,-4.738 -11.063,-16.957 -18.844,-23.543 l -94.735,-77.867 4.493,-8.781 156.972,-11.84 -52.519,-44.531 c -7.539,-6.402 -17.567,-13.336 -22.664,-13.5 -5.125,-0.168 -10.282,2.691 -15.477,8.586 z M 203.973,510.812 c 7.867,-17.191 17.722,-32.257 27.07,-48.453 l 8.426,4.856 c -2.715,7.515 -1.442,15.512 0.484,19.844 1.918,4.296 6.82,8.461 14.727,12.441 l 47.246,23.801 c 10.965,5.523 19.262,10.601 24.894,15.195 5.66,4.621 10.016,9.688 13.09,15.262 4.399,8.054 6.207,17.246 5.469,27.566 -0.77,10.313 -4.059,21.274 -9.863,32.809 -5.606,11.129 -11.711,19.941 -18.395,26.539 -6.664,6.566 -14.144,11.125 -22.461,13.637 -6.293,2.023 -13.289,2.277 -20.914,0.711 -7.684,-1.547 -16.984,-5.071 -27.937,-10.594 l -50.164,-25.274 c -9.754,-4.91 -16.731,-6.836 -20.883,-5.746 -4.172,1.117 -8.395,5.426 -12.793,12.957 l -8.016,-4.039 c 11.391,-25.699 18.774,-51.875 31.879,-74.695 l 9.961,5.613 c -3.484,8.297 -2.441,16.117 -0.973,20.164 1.489,4.055 6.672,8.336 15.641,12.86 l 53.375,26.886 c 15.883,8.004 28.469,10.961 37.691,8.864 9.25,-2.082 17.082,-9.555 23.559,-22.395 7.375,-14.648 8.949,-26.906 4.719,-36.719 -4.223,-9.855 -15.379,-19.34 -33.493,-28.464 l -47.246,-23.801 c -8.355,-4.211 -14.863,-5.77 -19.511,-4.719 -4.66,1.051 -13.629,1.781 -17.985,8.727 z m 719.48,-310.097 c 10.352,4.988 36.742,9.355 33.746,56.367 -1.48,23.055 18.258,16.305 23.481,17.035 -2.95,14.035 -23.2,12.723 -37.41,9.106 -19.04,-4.848 -26.372,-20.875 -28.161,-55.621 -0.8,-15.293 -24.058,-20.168 -32.132,-20.313 -0.356,0.008 -0.711,0.055 -1.059,0.145 -0.379,0.101 -0.766,0.16 -1.156,0.175 l -0.664,40.661 c -0.153,8.25 1.238,13.91 4.125,17.003 2.91,3.094 8.433,4.727 16.547,4.875 l 1.097,0.02 -0.172,9.941 c -25.019,-0.613 -51.515,-2.812 -77.828,0.153 l -0.808,-10.446 c 8.746,-0.691 14.492,-2.695 17.218,-6 2.731,-3.3 4.942,-9.437 5.075,-17.668 l 1.625,-97.882 c 0.136,-7.93 -1.215,-13.125 -4.008,-15.614 -2.801,-2.453 -8.742,-3.863 -17.809,-4.191 l 0.164,-9.699 c 35.961,3.695 91.078,-8.59 121.856,12.062 10.105,6.789 15.066,16.992 14.832,30.641 -0.196,10.601 -3.629,19.336 -10.301,26.203 -6.684,6.848 -16.078,11.18 -28.258,13.047 z m -42.527,-4.125 c 0.875,0.098 1.859,0.195 2.949,0.242 1.059,0.07 2.605,0.09 4.687,0.125 11.739,0.215 20.477,-2.312 26.196,-7.574 5.719,-5.227 8.687,-13.453 8.871,-24.613 0.195,-11.555 -2.238,-20.075 -7.297,-25.493 -5.02,-5.457 -13.09,-8.289 -24.141,-8.484 -4.273,-0.078 -7.035,0.469 -8.308,1.586 -1.274,1.117 -1.953,3.629 -2.012,7.461 z m 525.984,240.613 -52.683,13.774 25.273,32.976 z m 41.684,-22.769 2.984,5.398 -67.117,121.969 c -3.531,6.461 -6.215,13.621 -6.672,17.898 -0.457,4.289 0.719,9.137 3.492,14.535 l -7.937,4.864 c -12.692,-22.766 -27.481,-44.293 -44.172,-64.309 l 7.371,-5.652 c 5.242,6.226 9.066,9.914 11.539,11.07 2.469,1.109 4.941,0.738 7.469,-1.195 1.293,-0.992 2.91,-2.715 4.844,-5.184 2.195,-2.836 4.21,-5.801 6.043,-8.883 l 6.816,-10.933 -30.699,-40.098 -9.387,2.289 c -3.402,0.852 -6.742,1.945 -9.988,3.277 -3.008,1.254 -5.168,2.332 -6.461,3.325 -3.324,2.558 -4.883,5.691 -4.621,9.34 0.246,3.675 2.336,8.074 6.238,13.171 l -7.453,5.563 c -11.059,-15.992 -23.559,-27.789 -35.942,-42.352 l 7.899,-5.777 c 3.707,4.074 7.754,6.68 12.16,7.84 4.426,1.168 12.023,0.254 18.082,-1.293 z m -1080.055,823.211 -53.676,15.75 26.496,32.964 z m 39.074,-22.129 c 3.766,0.039 5.215,2.132 4.367,6.285 l -64.394,123.129 c -3.238,6.195 -4.231,9.008 -4.152,13.375 0.078,4.367 1.875,9.125 5.378,14.191 l -7.453,5.887 c -18.773,-20.477 -36.679,-37.539 -53.808,-58.387 l 7.011,-6.359 c 5.907,5.816 10.274,8.89 12.754,10.144 4.414,2.239 12.11,-3.23 14.864,-6.761 2.254,-2.915 4.336,-5.961 6.234,-9.122 l 6.762,-11.207 -32.207,-40.086 -9.555,2.489 c -3.473,0.933 -6.875,2.113 -10.184,3.531 -3.035,1.313 -5.234,2.473 -6.535,3.473 -3.359,2.656 -7.257,6.957 -6.918,10.664 0.332,3.722 2.539,8.129 6.633,13.238 l -7.508,5.777 c -9.972,-12.976 -24.074,-30.836 -31.593,-45.183 l 6.664,-5.223 c 3.586,4.309 7.593,7.156 12.031,8.551 4.465,1.418 10.387,0.281 16.723,-1.442 z m -132.476,-58.18 c -0.36,11.187 6.195,36.48 -36.926,52.422 -21.164,7.812 -7.305,22.742 -5.895,27.703 -13.683,2.93 -20.531,-15.652 -22.937,-29.773 -3.219,-18.903 8.183,-31.79 38.473,-47.18 13.328,-6.758 8.453,-29.426 5.398,-36.68 -0.137,-0.32 -0.316,-0.621 -0.535,-0.894 -0.242,-0.301 -0.453,-0.629 -0.621,-0.973 l -36.547,15.504 c -7.402,3.152 -15.067,8.629 -16.68,12.441 -1.617,3.805 -0.879,9.387 2.215,16.684 l 0.41,0.992 -8.93,3.801 c -11.847,-20.211 -19.98,-47.117 -29.882,-72.477 l 9.008,-4.844 c 4.085,7.52 8.152,11.856 12.179,12.977 4.028,1.117 12.422,1.75 19.813,-1.391 l 87.965,-37.336 c 7.128,-3.023 11.226,-6.285 12.343,-9.765 1.09,-3.473 -0.008,-9.328 -3.316,-17.559 l 8.726,-3.687 c 9.668,35.926 42.118,80.933 37.508,113.48 -1.664,11.762 -9.203,20.176 -21.468,25.379 -9.532,4.047 -18.676,4.445 -27.45,1.195 -8.785,-3.238 -16.363,-9.929 -22.851,-20.019 z m -13.172,-39.57 c 0.254,0.816 0.566,1.734 0.945,2.734 0.36,0.953 0.953,2.355 1.75,4.223 4.457,10.562 10.176,17.363 17.141,20.367 6.926,3.035 15.445,2.414 25.465,-1.828 10.39,-4.426 17.035,-9.95 19.863,-16.625 2.891,-6.633 2.219,-14.949 -1.992,-24.91 -1.625,-3.844 -3.211,-6.079 -4.699,-6.782 -1.497,-0.66 -4.016,-0.281 -7.45,1.18 z m 631.656,358.734 -16.449,50.711 40.203,-3.133 z m 3.59,-42.652 c 2.051,-2.93 4.484,-2.95 7.293,-0.059 l 62.293,116.863 c 3.113,5.875 4.808,8.172 8.289,10.465 3.492,2.278 8.191,3.406 14.074,3.406 l 0.606,9.008 c -26.196,3.785 -49.243,8.707 -74.852,10.981 l -1.254,-8.95 c 7.77,-1.515 12.535,-3.304 14.852,-4.582 4.125,-2.253 3.949,-11.242 2.656,-15.328 -1.086,-3.343 -2.371,-6.617 -3.844,-9.804 l -5.183,-11.344 -48.84,3.805 -3.172,8.851 c -1.133,3.231 -2.035,6.543 -2.695,9.902 -0.602,3.114 -0.895,5.458 -0.778,7.032 0.282,4.066 1.574,9.465 4.66,11.168 3.114,1.75 7.789,2.375 13.996,1.898 l 0.516,9.028 c -15.582,0.874 -37.207,2.351 -52.535,0.574 l -0.527,-8.055 c 5.32,-0.496 9.718,-2.133 13.191,-4.863 3.512,-2.774 5.805,-8.016 7.848,-13.949 z"
         style="fill:#000000;fill-opacity:1;fill-rule:evenodd;stroke:none"
         id="path14"
         inkscape:connector-curvature="0" /></g></g></svg>